<?xml version="1.0" encoding="utf-8"?>
<!-- Generator: Adobe Illustrator 26.0.3, SVG Export Plug-In . SVG Version: 6.00 Build 0)  -->
<svg version="1.1" id="Warstwa_1" xmlns="http://www.w3.org/2000/svg" xmlns:xlink="http://www.w3.org/1999/xlink" x="0px" y="0px"
	 viewBox="0 0 180 40" style="enable-background:new 0 0 180 40;" xml:space="preserve">
<style type="text/css">
	.st0{fill:#FFB34F;}
	.st1{fill:#FFFFFF;stroke:#000000;stroke-width:0.5;stroke-miterlimit:10;}
	.st2{fill:#FFFFFF;}
</style>
<rect x="1.66" y="1.61" width="177.79" height="29.63"/>
<rect x="0.26" y="0.09" class="st0" width="177.79" height="29.63"/>
<path class="st1" d="M163.38,23.79H14.94c-4.83,0-8.75-3.92-8.75-8.75v-0.28c0-4.83,3.92-8.75,8.75-8.75h148.44
	c4.83,0,8.75,3.92,8.75,8.75v0.28C172.13,19.87,168.21,23.79,163.38,23.79z"/>
<g>
	<path class="st2" d="M3.73,12.4c-0.12-4.74,4.21-8.35,8.74-8.45C8.02,4.43,3.98,7.75,3.73,12.4L3.73,12.4z"/>
</g>
<g>
	<path class="st2" d="M174.38,17.9c0.12,4.74-4.21,8.35-8.74,8.45C170.09,25.87,174.12,22.54,174.38,17.9L174.38,17.9z"/>
</g>
<polyline points="1.66,31.24 0.26,29.72 1.66,29.72 "/>
<path class="st0" d="M182.45-5.41"/>
<polygon points="178.05,0.09 179.45,1.61 179.45,1.61 178.05,1.61 "/>
</svg>
