<?xml version="1.0" encoding="utf-8"?>
<!-- Generator: Adobe Illustrator 26.0.3, SVG Export Plug-In . SVG Version: 6.00 Build 0)  -->
<svg version="1.1" id="Warstwa_1" xmlns="http://www.w3.org/2000/svg" xmlns:xlink="http://www.w3.org/1999/xlink" x="0px" y="0px"
	 viewBox="0 0 300 300" style="enable-background:new 0 0 300 300;" xml:space="preserve">
<style type="text/css">
	.st0{fill:#FFFFFF;stroke:#020203;stroke-width:6;stroke-miterlimit:10;}
	.st1{fill:#FFFFFF;stroke:#020203;stroke-width:3;stroke-miterlimit:10;}
	.st2{fill:#C22B2F;}
	.st3{fill:#020203;}
	.st4{fill:#020203;stroke:#C22B2F;stroke-width:0.5;stroke-miterlimit:10;}
	.st5{fill:#F9B253;}
	.st6{fill:#C22B2F;stroke:#020203;stroke-miterlimit:10;}
	.st7{fill:#FFFCFD;}
	.st8{fill:none;stroke:#020203;stroke-linecap:round;stroke-miterlimit:10;}
	.st9{fill:#F9B253;stroke:#C22B2F;stroke-width:0.5;stroke-miterlimit:10;}
	.st10{opacity:0.79;}
	.st11{fill:#FFFFFF;}
	.st12{fill:none;stroke:#020203;stroke-width:3;stroke-miterlimit:10;}
</style>
<path class="st0" d="M192.1,55.83c-0.74-0.31,12.62-25.24,3.31-14.64c-4.74,5.4-10.43,11.87-19.83,15.11
	c-14.09,4.86-31.66,0.78-40.61-9.44c-4.61-5.27,1.89,1.38,2.36,2.36c9.06,18.99,3.53,2.56-4.72,10.39
	c-2.01,1.91-5.97,6.21-9.92,10.86c-4.78,5.63-10.84,7.51-14.17,8.5c-2.22,0.66-7.74,2.05-16.05,0.94
	c-6.31-0.84-12.18-2.84-25.5-10.39C49.25,59.49,36.15,49.72,34.86,48.75c-11.63-8.73-12.49-12.83-11.8-11.8
	c1.89,2.83,4.86,7.65,15.11,24.55c8.63,14.24,10.86,21.25,16.05,39.66c2.74,9.71,3.41,17.64,1.42,24.08
	c-2.29,7.39-8.09,12.24-10.39,14.17c-1.94,1.62-6.08,4.76-14.17,7.55c-15.92,5.5-29.2,3.48-29.28,4.72
	c-0.05,0.85,6.27,1.46,17.94,4.72c7.48,2.09,10.7,3.46,13.22,4.72c4.27,2.13,8.18,4.14,11.33,8.5c0.57,0.79,3,4.25,3.78,8.5
	c1.42,7.75-3.23,14.84-8.5,21.72c-13.93,18.18-28.01,29.42-27.39,30.22c0.44,0.56,7.12-5.39,18.89-10.39
	c2.61-1.11,8.98-2.63,21.72-5.67c4.06-0.97,7.71-1.79,11.33,0c3.13,1.54,4.86,4.35,5.67,5.67c0.55,0.89,2.19,3.73,2.83,9.44
	c0.85,7.52-0.94,11.93,0,12.28c1.33,0.49,3.59-8.79,12.28-16.05c4.59-3.84,9.46-5.85,11.33-6.61c2.47-1,4.17-1.67,6.61-1.89
	c0.85-0.07,6.64-0.51,11.33,2.83c3.19,2.27,4.56,5.35,6.61,11.33c4.78,13.93,7.17,20.89,7.55,30.22c0.4,9.73-1.26,15.72,0,16.05
	c1.69,0.44,4.27-10.52,14.17-23.61c5.59-7.39,9.67-10.39,13.22-12.28c4.88-2.59,9.17-3.29,12.28-3.78
	c2.82-0.44,13.67-1.87,26.44,2.83c10.91,4.02,17.9,10.56,22.66,15.11c6.62,6.32,10.92,12.58,11.33,12.28
	c0.62-0.45-11.77-12.22-13.22-28.33c-0.48-5.31,0.65-6.45,0-16.05c-0.36-5.24-0.9-7.98,0.94-10.39c1.73-2.26,4.5-2.83,9.44-3.78
	c3.1-0.6,6.5-1.25,11.33-0.94c14.77,0.93,33.17,2.08,33.52,1.42c0.29-0.53-10.97-0.96-26.91-7.08c-10.09-3.88-15.01-3.89-19.83-9.44
	c-1.22-1.41-6.17-7.46-5.67-16.05c0.35-6,3.18-10.31,4.72-12.28c4.39-5.61,10.22-7.43,16.05-9.44c5.88-2.02,55.84-13.95,55.24-17.47
	c-0.22-1.32-19.83,0-32.11-0.94c-10.35-0.8-15.51-1.42-24.55-2.83c-8.61-1.35-11.14-1.52-15.58-4.25c-2.08-1.28-5.85-3.6-6.61-7.55
	c-0.7-3.64,1.49-6.81,4.72-11.33c5.11-7.16,10.09-10.29,9.44-11.33c-0.44-0.72-2.97,0.53-8.5,1.89c-3.54,0.87-8.51,2.05-14.17,1.89
	c-4.72-0.14-8.62-0.25-11.33-2.83c-3.45-3.29-3.11-8.82-2.83-12.28c1.75-21.54,6.61-36.83,6.61-36.83
	C205.12,32.89,192.9,56.17,192.1,55.83z"/>
<path class="st1" d="M210.51,16.64c-0.74-0.31-3.91,10.18-13.22,20.78c-4.74,5.4-10.43,11.87-19.83,15.11
	c-14.09,4.86-31.66,0.78-40.61-9.44c-4.61-5.27-6.53-11.72-7.55-11.33c-1.31,0.5,3.61,10.44,0.94,22.66
	c-0.59,2.71-1.72,7.63-5.67,12.28c-4.78,5.63-10.84,7.51-14.17,8.5c-2.22,0.66-7.74,2.05-16.05,0.94
	c-6.31-0.84-12.18-2.84-25.5-10.39C51.14,55.71,38.04,45.94,36.75,44.97c-11.63-8.73-17.04-14.06-17.94-13.22
	c-1.18,1.1,7.7,10.48,17.94,27.39c8.63,14.24,11.79,23.2,17.94,40.61c3.36,9.52,4.83,15.28,2.83,21.72
	c-2.29,7.39-8.09,12.24-10.39,14.17c-1.94,1.62-6.08,4.76-14.17,7.55c-15.92,5.5-29.2,3.48-29.28,4.72
	c-0.05,0.85,6.27,1.46,17.94,4.72c7.48,2.09,10.7,3.46,13.22,4.72c4.27,2.13,8.18,4.14,11.33,8.5c0.57,0.79,3,4.25,3.78,8.5
	c1.42,7.75-3.23,14.84-8.5,21.72c-13.93,18.18-28.01,29.42-27.39,30.22c0.44,0.56,7.12-5.39,18.89-10.39
	c2.61-1.11,8.98-2.63,21.72-5.67c4.06-0.97,7.71-1.79,11.33,0c3.13,1.54,4.86,4.35,5.67,5.67c0.55,0.89,2.19,3.73,2.83,9.44
	c0.85,7.52-0.94,11.93,0,12.28c1.33,0.49,3.59-8.79,12.28-16.05c4.59-3.84,9.46-5.85,11.33-6.61c2.47-1,4.17-1.67,6.61-1.89
	c0.85-0.07,6.64-0.51,11.33,2.83c3.19,2.27,4.56,5.35,6.61,11.33c4.78,13.93,7.17,20.89,7.55,30.22c0.4,9.73-1.26,15.72,0,16.05
	c1.69,0.44,4.27-10.52,14.17-23.61c5.59-7.39,9.67-10.39,13.22-12.28c4.88-2.59,9.17-3.29,12.28-3.78
	c2.82-0.44,13.67-1.87,26.44,2.83c10.91,4.02,17.9,10.56,22.66,15.11c6.62,6.32,10.92,12.58,11.33,12.28
	c0.62-0.45-11.77-12.22-13.22-28.33c-0.48-5.31,0.65-6.45,0-16.05c-0.36-5.24-0.9-7.98,0.94-10.39c1.73-2.26,4.5-2.83,9.44-3.78
	c3.1-0.6,6.5-1.25,11.33-0.94c14.77,0.93,33.17,2.08,33.52,1.42c0.29-0.53-10.97-0.96-26.91-7.08c-10.09-3.88-15.01-3.89-19.83-9.44
	c-1.22-1.41-6.17-7.46-5.67-16.05c0.35-6,3.18-10.31,4.72-12.28c4.39-5.61,10.22-7.43,16.05-9.44c5.88-2.02,55.84-13.95,55.24-17.47
	c-0.22-1.32-19.83,0-32.11-0.94c-10.35-0.8-15.51-1.42-24.55-2.83c-8.61-1.35-11.14-1.52-15.58-4.25c-2.08-1.28-5.85-3.6-6.61-7.55
	c-0.7-3.64,1.49-6.81,4.72-11.33c5.11-7.16,10.09-10.29,9.44-11.33c-0.44-0.72-2.97,0.53-8.5,1.89c-3.54,0.87-8.51,2.05-14.17,1.89
	c-4.72-0.14-8.62-0.25-11.33-2.83c-3.45-3.29-3.11-8.82-2.83-12.28c1.75-21.54,6.61-36.83,6.61-36.83
	C207.01,29.12,211.31,16.97,210.51,16.64z"/>
<g>
	<path class="st2" d="M48.3,100.64c7.64,4.44,16.24,8.74,23.89,13.2c0,0-2.31,3.26-2.31,3.26c-1.69-1.38-3.52-2.76-5.32-4.12
		C59.53,109.16,53.22,104.57,48.3,100.64L48.3,100.64z"/>
</g>
<path class="st2" d="M168.49,212.6c-7.55,5.67-15.66,10.66-17.94,13.22c-0.42,0.47-3.23,2.26-4.72,1.89
	c-3.78-0.94-6.95-2.71-9.44-4.72c-1.98-1.59-2.96-2.39-3.78-3.78c-2.52-4.29-3.27-17.67-1.89-17.94c0.92-0.18,2.25,2.21,5.67,5.67
	c1.74,1.76,2.39,3.55,6.61,5.67c1.89,0.94,3.63,2.64,5.67,1.89c4.04-1.5,13.22-6.61,13.22-9.44c0-1.14,2.42,4.21,2.83,3.78"/>
<g>
	<path class="st2" d="M168.02,187.57c0.94,4.72-2.05,6.83-2.97,8.04c-0.73,0.94-1.05,1.77-1.55,3.11c-0.82,2.17-1.23,3.25-1.17,4.66
		c0.08,1.81,0.85,3.1,1.55,4.27c1.16,1.95,2.53,3.09,3.5,3.88c1.14,0.94,2.89,2.37,5.44,3.11c2.73,0.79,4.99,0.38,6.99,0
		c5.35-1.02,9.02-3.82,11.65-5.83c2.04-1.56,3.56-3.05,4.66-4.27c2.26-2.49,3.38-3.74,3.88-5.44c1.29-4.36-2.06-8.83-3.88-11.27
		c-2.85-3.8-6.16-5.7-7.77-6.6c-3.52-1.97-12.23-3.54-14.37-3.88"/>
	<path class="st3" d="M168.02,187.57c0.53,2.14,0.12,4.49-1.24,6.25c-0.64,0.91-1.5,1.61-2.02,2.53c-0.93,1.85-1.73,4.01-2.12,6.04
		c-0.29,5.19,5.11,9.74,9.48,11.57c9.37,2.87,19.03-4.48,24.92-11.15c4.71-4.42,2.67-9.49-0.71-14.04
		c-5.19-7.88-13.67-9.75-22.36-11.42c4.31,0.64,8.61,1.42,12.74,2.87c6.12,2.52,11.1,7.69,13.49,13.87
		c1.87,5.05-1.42,8.38-4.68,11.77c-6.04,5.96-14.94,11.72-23.71,8.91c-4.69-1.96-10.19-6.99-9.74-12.45
		c0.46-2.21,1.29-4.2,2.35-6.17c0.59-0.96,1.49-1.64,2.13-2.49C167.94,192,168.44,189.71,168.02,187.57L168.02,187.57z"/>
</g>
<path class="st4" d="M106.63,127.13c0,0.94-2.83,2.96-2.83,3.78c0,0.99-8.43-3.77-10.03-4.56c0,0-2.29-1.14-8.4-3.95
	c-6.74-3.11-16.31-3.46-14.33-6.43c1.48-2.21,0.99-1.98,1.48-1.98c1.76,0,5.76,2.36,8.4,3.46c5.82,2.41,5.68,2.66,7.91,3.46
	C93.93,122.75,106.63,124.67,106.63,127.13z"/>
<path class="st2" d="M113.72,183.32c2.04,0,2.49-4.88,2.49-4.88c0.35-1.59,0.81-3.63,0-5.93c-0.18-0.5-0.96-2.72-2.97-3.95
	c-2.54-1.57-5.71-0.71-7.91,0c-10.79,3.48-13.71,8.45-26.2,15.32c-3.13,1.73-6.77,3.52-7.41,6.92c-0.36,1.91,0.4,3.4,1.48,5.93
	c3.27,7.62,2.29,7.8,4.45,12.36c4.67,9.85,6.91,13.45,9.62,12.01c0.5-0.26,2.18-1.03,2.83-2.83c1.19-3.26,5.6-1.34,6.61-2.83
	c0.35-0.52,1.93,0.55,4.66-1.4c1.37-0.98,2.01-1.4,1.98-1.98c-0.04-0.87-1.55-1.3-2.97-1.98c-2.97-1.41-4.66-3.46-7.91-7.41
	c-1.23-1.49-2.34-2.85-3.46-4.94c-1.34-2.51-0.47-1.97-2.22-4.48c-0.51-0.74,5.67-2.83,7.55-4.72c1.95-1.95,13.45-5.67,13.22-5.67
	C106.63,182.85,108.99,183.32,113.72,183.32z"/>
<path class="st2" d="M126.94,188.04c1.89,0,2.84,6.39,4.72,12.28c3.56,11.11,2.36,48.01,0,51.94c-1.08,1.79-4.72-11.62-4.72-14.17
	c0-1.89-0.47-4.24-0.94-5.67c-3.78-11.33-4.46-14.86-10.39-17.94c-2.99-1.56-5.48,0.95-9.44-1.89c-1.42-1.02-4.2,0.24-4.72-0.94
	c-1.94-4.35-0.95-6.9-0.94-14.17c0.01-5.08,1.48-12.96,2.83-14.17c1.53-1.37,6.61,0,10.39,0c2.08,0,1.08-7.19,2.83-7.55
	c2.08-0.43,7.55,9.44,16.05,11.33"/>
<g>
	<path class="st2" d="M181.01,165.15c-3.67,2.46-5.21,5.02-5.93,6.92c-1.2,3.16-0.31,4.9-1.98,8.9c-1.22,2.93-2.87,4.81-3.46,5.44
		c-1.27,1.37-3.96,3.83-7.91,4.94c-3.52,0.99-6.47,0.46-8.9,0c-14.15-2.69-21.22-4.04-25.21-6.43c-1.21-0.72,0.08-0.04-11.37-9.39
		c-7.25-5.92-9.14-7.32-11.37-10.38c-3.42-4.7-4.62-9.21-5.44-12.36c-0.86-3.33-2.27-8.66,4.34-20.94
		c6.87-12.75,9.44-13.44,13.22-17c4.55-4.28,10.69-9.88,17.94-11.33c4.72-0.94,6.88-3.33,24.55,0c17.89,3.37,12.6,2.15,16.55,3.79
		c8.13,3.39,11.8,6.3,14.33,8.9c1.76,1.8,5.41,5.62,7.41,11.86c1.92,5.98,1.31,10.98,0.99,13.35c-1.33,9.85-6.8,16.51-9.39,19.28"/>
	<path class="st3" d="M181.01,165.15c-2.46,1.66-4.65,3.88-5.77,6.66c-1.16,2.78-0.63,5.95-1.85,8.74
		c-3.69,9.35-12.38,13.44-22.05,10.78c-5.19-1.12-12.52-2.22-17.56-3.68c-2.86-0.82-5.95-1.76-8.13-3.87
		c-4.53-3.88-9.19-7.62-13.82-11.39c-4.81-3.59-9-8.27-11.07-14.01c-1.05-2.85-1.93-5.71-2.37-8.73c-0.34-3.06,0.18-6.13,1.09-9
		c1.85-5.75,4.85-11,8.02-16.11c1.61-2.53,3.47-4.97,5.74-7.01c2.31-1.96,4.44-3.96,6.69-5.97c4.47-3.95,9.71-7.57,15.7-8.61
		c5.74-1.95,11.95-1.76,17.87-0.81c5.17,0.7,12.44,2.32,17.64,3.23c3.01,0.4,5.64,2,8.42,3.18c8.19,3.67,15.41,10.27,18.29,18.94
		c3.86,11.51-0.19,24.64-8.44,33.22c8.09-8.64,11.98-21.69,8-33.07c-2.93-8.51-10.01-14.97-18.11-18.54
		c-2.71-1.14-5.31-2.71-8.28-3.08c-5.23-0.84-12.47-2.42-17.63-3.11c-5.9-0.91-11.85-1.09-17.56,0.87
		c-5.88,1.05-10.86,4.57-15.28,8.48c-2.2,1.98-4.41,4.08-6.65,5.99c-2.17,1.98-3.96,4.33-5.57,6.82c-3.13,4.99-6.16,10.22-8,15.84
		c-0.91,2.8-1.41,5.75-1.1,8.64c0.4,2.88,1.28,5.8,2.28,8.54c2.04,5.67,6.01,10.14,10.78,13.74c5.22,4.17,10.31,8.62,15.49,12.82
		c4.56,2.51,9.83,3.31,14.86,4.44c0,0,8.79,1.73,8.79,1.73c2.9,0.58,5.85,1.18,8.79,0.64c5.84-1,10.83-5.46,12.95-10.99
		c1.25-2.76,0.76-5.93,1.96-8.7C176.3,168.97,178.53,166.78,181.01,165.15L181.01,165.15z"/>
</g>
<path class="st5" d="M126.94,188.99c1.89,2.83,7.21,21.68,6.61,31.16c-0.15,2.34-0.37,16-0.94,16.05c-1.09,0.11,2.51,1.89-5.67,1.89
	c-3.76,0-2.94-8.58-4.72-13.22c-3.12-8.1-5.67-9.38-8.5-10.39c-1.13-0.4-5.67-0.94-7.55-0.94c-2.11,0-2.9,0.38-2.83,0
	c0.73-3.81,0-1.89-1.89-2.83c-0.81-0.4-2.6-21.78,0-19.83c3.78,2.83,7.55,0.94,7.55,0.94c1.25-2.15,3.1-2.52,3.78-3.78
	c1.25-2.33,1.3-5.56,1.7-5.43c0.18,0.06,0.19,0.51,0.19,0.71c0,2.18,0.25,11.54,0.94,12.28c2.08,2.18,2.83,2.83,4.72,1.89
	c1.01-0.51,1.89-0.94,3.78-2.83c1.82-1.82,1.6-6.59,1.89-6.61C126.62,188,125.57,186.94,126.94,188.99z"/>
<g>
	<path class="st3" d="M167.07,213.07c-5.8,4.46-11.54,9.01-17.09,13.77c-1.12,0.88-2.65,0.96-3.98,0.87
		c-3.57-0.26-6.98-1.55-9.52-4.08c-1.38-1.13-2.5-2.47-3.41-3.94c1.16,1.23,2.44,2.42,3.82,3.38c2.77,2.13,5.71,3.39,9.19,3.74
		c1.19,0.11,2.46,0.12,3.47-0.54C155.22,221.66,161.06,217.21,167.07,213.07L167.07,213.07z"/>
</g>
<path class="st6" d="M158.57,214.01"/>
<path class="st7" d="M129.77,150.27c-0.04,0.09-0.15,0.35-0.3,0.74c-0.49,1.23-2.5,5.4-1.58,9.65c0.16,0.73,0.89,0.83,0.94,0.94
	c0.87,1.87,3.04,2.54,3.78,2.83c3.14,1.23,10.24-5.22,12.28-11.33c0.55-1.66,0.94-3.32,0.94-4.72c0-0.94-0.23-4.24-2.83-5.67
	C139.33,140.7,131.87,145,129.77,150.27z"/>
<path class="st7" d="M155.27,165.38c-0.6,0.99-1.03,1.29-1.89,5.67c-0.02,0.09-0.06,1.61,0,1.89c0,0,0.21,1.29,1.23,1.94
	c3.08,1.96,10.11-1.94,12.94-5.71c3.91-5.22,3.78-10.39,0-9.44C162.3,161.02,157.7,161.35,155.27,165.38z"/>
<g>
	<path class="st3" d="M152.84,156.75c-3.3,0.12-5.34-3.21-6.11-5.97c-2.86-8.15-9.51-14.36-17.61-17.26
		c5.98,0.5,11.65,3.84,15.21,8.68c1.79,2.43,3.21,5.18,3.9,8.14C148.78,153.12,149.81,155.94,152.84,156.75L152.84,156.75z"/>
</g>
<g>
	<path class="st3" d="M156.55,160.45c4.92-0.96,9.84-1.52,14.79-2.09c1.02-0.09,1.81-0.43,2.81-0.66c2.06-0.55,4.39-0.3,6.13,0.77
		c-3.29-0.61-5.68,0.95-8.61,1.75C166.68,161.08,161.58,161.41,156.55,160.45L156.55,160.45z"/>
</g>
<g>
	<path class="st3" d="M142.21,171.82c2.52-1.09,5.63-2.3,8.21-0.76c1.52,1.01,1.99,3.45,0.69,4.71c0.85-1.99-0.47-4.18-2.55-4.36
		C146.45,171.05,144.35,171.73,142.21,171.82L142.21,171.82z"/>
</g>
<g>
	<path class="st3" d="M129.86,163.91c-1.83-1.9-3.72-3.12-5.93-4.45C126.57,159.39,129.28,161.28,129.86,163.91L129.86,163.91z"/>
</g>
<g>
	<path class="st3" d="M143.2,142.16c-1.95-0.06-4,0.4-5.81,1.13c-1.69,0.87-3.21,2.36-4.47,3.73c-2.42,3.07-4.45,6.59-4.78,10.59
		c-0.17,1.29-0.2,2.63,0.33,3.79c0.49,1.19,1.61,2.05,2.87,2.51c-1.32-0.23-2.6-1.04-3.3-2.29c-0.7-1.26-0.74-2.74-0.66-4.09
		c0.09-4.19,2.2-7.96,4.83-11.13c1.48-1.51,3.02-2.88,4.96-3.7C139.08,142.07,141.22,141.8,143.2,142.16L143.2,142.16z"/>
</g>
<g>
	<path class="st3" d="M132.82,164.41c4.12,0.47,6.74-3.25,8.84-6.26c1.13-1.6,2.15-3.19,2.88-4.97c0.74-1.77,1.25-3.65,1.63-5.57
		c0.11,3.98-1.32,7.93-3.69,11.11C140.39,161.77,137.01,165.75,132.82,164.41L132.82,164.41z"/>
</g>
<g>
	<path class="st3" d="M142.21,181.21c-4.48,2.33-9.63-2.28-9.39-6.92c0.37,1.06,0.82,2.04,1.4,2.93
		C135.96,179.95,138.8,181.68,142.21,181.21L142.21,181.21z"/>
</g>
<g>
	<path class="st3" d="M154.07,174.79c-2.02-4.03-0.47-9.18,2.67-12.23c0.62-0.59,1.24-1.24,2.04-1.72c1.59-1,3.58-1.02,5.18-0.38
		c-2.7-0.48-4.93,0.74-6.54,2.76C154.56,166.25,153.08,170.64,154.07,174.79L154.07,174.79z"/>
</g>
<g>
	<path class="st3" d="M156.05,175.28c4.79-0.66,8.7-3.7,11.46-7.56c1.46-2.27,3.43-4.96,2.38-7.76c0.53,0.81,0.79,1.84,0.64,2.85
		C169.25,169.4,163.05,175.63,156.05,175.28L156.05,175.28z"/>
</g>
<path class="st8" d="M156.05,171.82"/>
<path class="st3" d="M156.55,171.33c3.36-1.3,4.56-3.94,5.44-4.94c0.45-0.51,3.03-4.72,2.97-6.43c-0.01-0.35-0.49,0.49-1.98,0.49
	c0,0-1.42,0.03-2.47,0c-0.96-0.03-2.82,1.58-3.95,2.97c-2.46,3.01-3.46,6.92-2.47,7.91C154.24,171.5,154.99,171.93,156.55,171.33z"
	/>
<path class="st3" d="M129.86,159.96c0.92,0.32,1.73,0.16,2.47,0c1.09-0.23,1.92-0.66,2.47-0.99c0.42-0.25,2.25-1.4,3.95-3.95
	c0.33-0.49,2.08-3.19,2.47-6.92c0.18-1.75-0.04-2.7-0.49-3.46c-0.23-0.39-0.73-1.28-1.48-1.48c-1.13-0.31-4,0-6.92,3.95
	c-3.56,4.83-5.22,10.15-3.95,11.86C128.64,159.34,129.24,159.74,129.86,159.96z"/>
<path class="st3" d="M182.99,126.59c1.91-0.24,4.45-0.84,6.92-2.47c4.79-3.17,6.22-8.2,6.92-7.91c0.58,0.24-0.17,2.93-0.99,8.9
	c-0.17,1.27-1.4,3.93-2.97,5.93c-0.54,0.69-1.09,1.18-1.48,1.48"/>
<path class="st3" d="M143.26,113.8c1.84-3.01,1.89-5.47,1.81-6.62c-0.09-1.36-0.78-2.95-2.14-6.08c-1.58-3.63-2.38-5.44-2.97-5.35
	c-0.66,0.11-0.36,2.2-1.33,6.5c-0.81,3.59-1.89,5.93-2.29,6.75c-0.75,1.56-1.52,2.79-2.1,3.63"/>
<g>
	<path class="st3" d="M114.29,182.45c1.13-1.79,1.09-4.07,2.35-5.76c0.22-0.34,0.26-0.72-0.1-0.97c-2.04-1.3-3.75-3.15-5.95-4.54
		c-1.01-0.78-1.68-1.89-2.45-2.86c-0.26-0.3-0.54-0.52-0.85-0.49c-0.53,0.06-1.6,0.76-2.15,1c0,0-2.2,1.18-2.2,1.18
		c-7.29,4.02-14.15,8.79-21.43,12.86c-3.53,2.26-10.22,4.34-9.82,9.46c0.63,3.1,2.55,6.14,3.46,9.26c1.26,4.87,3.23,9.34,5.78,13.67
		c1.64,2.8,3.4,5.71,5.83,7.87c0.6,0.5,1.29,0.95,1.95,1.02c0.25,0.05,0.51-0.03,0.72-0.12c0.15-0.22,0.36-0.66,0.51-1.06
		c0.89-1.81,0.88-4.98,3.34-5.4c0.83-0.13,1.72,0.17,2.45,0.04c0.14-0.03,0.25-0.09,0.34-0.18c1.79-2,4.47-3.2,6.36-4.96
		c0.48-0.61-0.46-1-0.95-1.27c-3.19-1.17-5.81-3.52-7.87-6.16c-2.09-2.61-4.43-5.1-5.66-8.27c-0.57-1.61-0.57-3.32-1.32-4.8
		c-1.44-3.27-4.72-4.84-8.17-3.82c3.48-1.12,6.84,0.43,8.39,3.71c0.81,1.52,0.85,3.27,1.44,4.78c1.28,3.05,3.67,5.5,5.75,8.04
		c1.08,1.26,2.18,2.5,3.45,3.53c2.41,2.42,9.38,2.62,3.49,6.34c-1.49,1.16-3.12,2.07-4.31,3.47c-0.2,0.21-0.48,0.35-0.74,0.41
		c-1.15,0.26-2.58-0.47-3.39,0.4c-1.17,1.54-1.26,3.97-2.36,5.68c-1.1,1.22-3.06,0.13-3.99-0.69c-2.58-2.27-4.35-5.18-6.08-8.09
		c-2.58-4.31-4.66-8.97-5.88-13.84c-0.94-3.29-2.79-6.02-3.46-9.46c-0.22-1.83,0.59-3.64,1.8-4.9c2.06-2.24,5.95-3.87,8.52-5.41
		c8.01-4.45,15.62-9.62,23.79-13.78c0,0,1.12-0.56,1.12-0.56c0.37-0.16,0.73-0.44,1.27-0.47c0.56-0.02,0.99,0.37,1.25,0.69
		c0.75,1,1.35,2.1,2.31,2.9c1.65,1.2,3.31,2.57,4.84,3.94c0.32,0.31,0.69,0.44,1.02,0.72c0.87,0.72-0.25,1.59-0.59,2.27
		C115.5,179.34,115.18,181.02,114.29,182.45L114.29,182.45z"/>
</g>
<g>
	<path class="st3" d="M108.11,183.19c-1.98,0.25-3.89,0.7-5.74,1.34c-3.1,1.24-7.37,3.96-10.36,5.6c-1.71,1-3.46,1.93-5.16,2.95
		c3-2.64,6.38-4.77,9.82-6.76C100.06,184.26,104.07,182.8,108.11,183.19L108.11,183.19z"/>
</g>
<g>
	<path class="st3" d="M122.44,190.11c2.08-3.85,7.17-3.33,10.87-2.97c-2.58,0.68-5.25,0.72-7.84,1.24
		C124.37,188.72,123.42,189.4,122.44,190.11L122.44,190.11z"/>
</g>
<g>
	<path class="st3" d="M101.19,210.87c-0.68-4.35-1.44-9.04-1.51-13.45c0.04-3.39,1.18-6.79,2.04-10c0.34-1.08,0.64-2.15,0.95-3.24
		c-0.4,4.45-1.88,8.78-1.99,13.24C100.72,201.88,101.26,206.38,101.19,210.87L101.19,210.87z"/>
</g>
<g>
	<path class="st3" d="M149.13,215.9c-3.1-1.72-6.35-3.21-9.31-5.2c-2.65-2.37-5.4-4.77-7.56-7.61c-2.39-3.32-2.46-7.59-3.09-11.45
		c-0.37-1.52-1.29-2.79-2.28-3.99c1.23,1.02,2.37,2.26,2.87,3.81c1.16,4.48,1.21,9.42,4.7,12.91c1.74,1.99,3.77,4.09,5.68,5.92
		C143,212.35,146.16,213.98,149.13,215.9L149.13,215.9z"/>
</g>
<g>
	<path class="st3" d="M160.01,207.41c-2.4,4.22-7.11,6.86-11.82,7.55C152.46,212.92,156.54,210.69,160.01,207.41L160.01,207.41z"/>
</g>
<g>
	<path class="st3" d="M196.51,195.61c-4.06,10.79-21.51,8.2-27.02,0.04c-1.42-2.07-1.27-4.75-1.47-7.13
		c0.46,3.13,0.87,6.46,3.54,8.53c4.84,4.03,11.64,5.54,17.77,4.3C192.38,200.67,194.98,198.44,196.51,195.61L196.51,195.61z"/>
</g>
<path class="st4" d="M235.63,229.65c-4.94-2.47-11.71-2.52-21.25-9.89c-7.69-5.93-16.4-21.62-20.27-20.76
	c-0.18,0.04-1.92,1.42-2.47,1.98c-0.99,0.99,4.94,2.97,11.37,11.37c5.96,7.79,5.13,7.51,10.87,11.86
	c7.02,5.32,11.37,5.44,16.81,9.39c0.59,0.43,2.64,2.63,2.97,1.48C234.64,231.63,237.5,230.59,235.63,229.65z"/>
<g>
	<path class="st2" d="M58.68,89.28c2.02,2.36,4.19,4.52,6.64,6.22c3.71,2.99,10.38,3.78,11.13,9.47
		c0.23,7.84-4.83,14.31-10.15,19.45c-5.5,4.94-11.76-1.38-16.34-4.56c-3.45-3.12-7.09-5.58-11.79-6.13c3.13-0.6,6.48,0.01,9.35,1.42
		c2.88,1.59,5.11,3.26,7.95,4.76c4.77,2.57,6.42,4.17,9.7,0.07c2.74-3.23,5.83-6.71,6.97-10.81c0.43-1.45,0.89-2.89,0.83-3.85
		c-0.15-2.7-3.06-3.79-5.16-5.33C63.87,97.38,60.61,93.53,58.68,89.28L58.68,89.28z"/>
</g>
<g>
	<path class="st3" d="M131.66,252.26c1.28-5.28,1.34-10.77,1.61-16.17c0.75-16.31-0.39-32.7-6.33-48.05c0.95,2.54,1.87,5.1,2.65,7.7
		c4.02,13.05,4.48,26.81,3.85,40.35C133.15,241.5,133.03,247,131.66,252.26L131.66,252.26z"/>
</g>
<g>
	<path class="st3" d="M125.52,188.52c0.14,2.59-0.22,5.41-2.08,7.43c-1.75,1.62-4.47,2.66-6.74,1.45c-1.38-1.24-1.36-3.23-1.7-4.84
		c-0.42-3.84-0.63-7.78,0.13-11.59c-0.17,3.82,0.26,7.68,0.81,11.45c0.29,1.41,0.42,3.08,1.28,4.14c1.86,0.97,4.16,0.05,5.7-1.17
		C124.72,193.68,125.26,190.94,125.52,188.52L125.52,188.52z"/>
</g>
<g>
	<path class="st3" d="M133.07,235.73c0.23,2.59-4.72,3.47-6.61,2.83c1.83-0.64,3.57-0.99,5.31-1.71
		C132.3,236.61,132.82,236.36,133.07,235.73L133.07,235.73z"/>
</g>
<g>
	<path class="st3" d="M115.13,181.9c-1.59,3.05-2.05,6.95-4.85,9.27c-3.09,2.6-7.05,3.11-9.32-0.77c1.11,1.32,2.52,2.32,4.31,2.02
		c2.35-0.25,4.19-1.73,5.8-3.25C112.73,187.08,113.53,184.05,115.13,181.9L115.13,181.9z"/>
</g>
<path class="st9" d="M126.56,207.85c0.12,0.01,0.21,1.12,0,2.43c-0.11,0.67-0.21,1.26-0.52,1.91c-0.9,1.85-2.78,2.54-2.94,2.6
	c-2.25,0.78-4.17-0.32-4.5-0.52c-2.07-1.24-2.51-3.39-2.6-3.81c-0.33-1.59,0.11-2.95,0.17-2.94c0.05,0-0.11,0.89,0.35,1.21
	c0.23,0.17,0.61,0.17,0.87,0c0.27-0.18,0.32-0.51,0.35-0.69c0.09-0.68-0.33-0.85-0.35-1.56c-0.02-0.7,0.37-1.21,0.52-1.39
	c0.32-0.37,0.78-0.6,0.87-0.52c0.07,0.07-0.15,0.27-0.17,0.69c-0.01,0.14,0.01,0.42,0.17,0.69c0.06,0.09,0.15,0.25,0.35,0.35
	c0.19,0.1,0.5,0.15,0.69,0c0.09-0.07,0.14-0.18,0.17-0.69c0.03-0.44,0.01-0.66,0-1.21c-0.01-0.59,0.01-0.51,0-0.87
	c-0.02-0.42-0.04-0.5,0-0.69c0.02-0.09,0.1-0.41,0.35-0.69c0.15-0.17,0.22-0.16,0.35-0.35c0.07-0.11,0.21-0.3,0.17-0.52
	c-0.02-0.11-0.05-0.12-0.17-0.35c-0.15-0.29-0.22-0.43-0.17-0.52c0.1-0.17,0.61-0.02,0.69,0c0.2,0.05,0.57,0.16,0.87,0.52
	c0.12,0.14,0.4,0.47,0.35,0.87c-0.03,0.25-0.17,0.26-0.35,0.69c-0.12,0.31-0.16,0.56-0.17,0.69c-0.04,0.31,0.01,0.32,0,0.87
	c-0.01,0.47-0.05,0.57,0,0.87c0.05,0.29,0.12,0.44,0.17,0.52c0.04,0.06,0.14,0.22,0.35,0.35c0.14,0.09,0.32,0.2,0.52,0.17
	c0.26-0.04,0.45-0.3,0.52-0.52c0.1-0.31-0.05-0.45-0.17-1.21c-0.09-0.6-0.04-0.77,0-0.87c0.02-0.04,0.16-0.38,0.52-0.52
	c0.02-0.01,0.39-0.15,0.52,0c0.02,0.03,0.07,0.1,0,0.35c-0.1,0.37-0.25,0.41-0.35,0.69c-0.12,0.34-0.04,0.68,0,0.87
	c0.02,0.1,0.03,0.08,0.17,0.52c0.16,0.48,0.14,0.47,0.17,0.52c0.22,0.36,0.59,0.19,0.87,0.52c0.29,0.34,0.2,0.9,0.17,1.04
	c-0.06,0.34-0.18,0.38-0.17,0.69c0,0.18,0.06,0.35,0.17,0.69c0.14,0.43,0.25,0.62,0.17,0.69c-0.05,0.05-0.16,0.04-0.17,0
	c-0.03-0.07,0.38-0.2,0.69-0.52C126.5,208.42,126.47,207.84,126.56,207.85z"/>
<g class="st10">
	<path class="st11" d="M185.96,117.69c-6.27-5.95-14.2-9.13-22.66-10.39C171.92,105.62,181.87,109.8,185.96,117.69L185.96,117.69z"
		/>
</g>
<path class="st12" d="M210.39,16.37c-0.74-0.31-3.91,10.18-13.22,20.78c-4.74,5.4-10.43,11.87-19.83,15.11
	c-14.09,4.86-31.66,0.78-40.61-9.44c-4.61-5.27-6.53-11.72-7.55-11.33c-1.31,0.5,3.61,10.44,0.94,22.66
	c-0.59,2.71-1.72,7.63-5.67,12.28c-4.78,5.63-10.84,7.51-14.17,8.5c-2.22,0.66-7.74,2.05-16.05,0.94
	c-6.31-0.84-12.18-2.84-25.5-10.39C51.02,55.43,37.92,45.67,36.63,44.7C25,35.97,19.6,30.63,18.69,31.48
	c-1.18,1.1,7.7,10.48,17.94,27.39c8.63,14.24,11.79,23.2,17.94,40.61c3.36,9.52,4.83,15.28,2.83,21.72
	c-2.29,7.39-8.09,12.24-10.39,14.17c-1.94,1.62-6.08,4.76-14.17,7.55c-15.92,5.5-29.2,3.48-29.28,4.72
	c-0.05,0.85,6.27,1.46,17.94,4.72c7.48,2.09,10.7,3.46,13.22,4.72c4.27,2.13,8.18,4.14,11.33,8.5c0.57,0.79,3,4.25,3.78,8.5
	c1.42,7.75-3.23,14.84-8.5,21.72c-13.93,18.18-28.01,29.42-27.39,30.22c0.44,0.56,7.12-5.39,18.89-10.39
	c2.61-1.11,8.98-2.63,21.72-5.67c4.06-0.97,7.71-1.79,11.33,0c3.13,1.54,4.86,4.35,5.67,5.67c0.55,0.89,2.19,3.73,2.83,9.44
	c0.85,7.52-0.94,11.93,0,12.28c1.33,0.49,3.59-8.79,12.28-16.05c4.59-3.84,9.46-5.85,11.33-6.61c2.47-1,4.17-1.67,6.61-1.89
	c0.85-0.07,6.64-0.51,11.33,2.83c3.19,2.27,4.56,5.35,6.61,11.33c4.78,13.93,7.17,20.89,7.55,30.22c0.4,9.73-1.26,15.72,0,16.05
	c1.69,0.44,4.27-10.52,14.17-23.61c5.59-7.39,9.67-10.39,13.22-12.28c4.88-2.59,9.17-3.29,12.28-3.78
	c2.82-0.44,13.67-1.87,26.44,2.83c10.91,4.02,17.9,10.56,22.66,15.11c6.62,6.32,10.92,12.58,11.33,12.28
	c0.62-0.45-11.77-12.22-13.22-28.33c-0.48-5.31,0.65-6.45,0-16.05c-0.36-5.24-0.9-7.98,0.94-10.39c1.73-2.26,4.5-2.83,9.44-3.78
	c3.1-0.6,6.5-1.25,11.33-0.94c14.77,0.93,33.17,2.08,33.52,1.42c0.29-0.53-10.97-0.96-26.91-7.08c-10.09-3.88-15.01-3.89-19.83-9.44
	c-1.22-1.41-6.17-7.46-5.67-16.05c0.35-6,3.18-10.31,4.72-12.28c4.39-5.61,10.22-7.43,16.05-9.44c5.88-2.02,55.84-13.95,55.24-17.47
	c-0.22-1.32-19.83,0-32.11-0.94c-10.35-0.8-15.51-1.42-24.55-2.83c-8.61-1.35-11.14-1.52-15.58-4.25c-2.08-1.28-5.85-3.6-6.61-7.55
	c-0.7-3.64,1.49-6.81,4.72-11.33c5.11-7.16,10.09-10.29,9.44-11.33c-0.44-0.72-2.97,0.53-8.5,1.89c-3.54,0.87-8.51,2.05-14.17,1.89
	c-4.72-0.14-8.62-0.25-11.33-2.83c-3.45-3.29-3.11-8.82-2.83-12.28c1.75-21.54,6.61-36.83,6.61-36.83
	C206.89,28.84,211.19,16.7,210.39,16.37z"/>
</svg>
