<?xml version="1.0" encoding="utf-8"?>
<!-- Generator: Adobe Illustrator 26.0.3, SVG Export Plug-In . SVG Version: 6.00 Build 0)  -->
<svg version="1.1" id="Warstwa_1" xmlns="http://www.w3.org/2000/svg" xmlns:xlink="http://www.w3.org/1999/xlink" x="0px" y="0px"
	 viewBox="0 0 56.69 56.69" style="enable-background:new 0 0 56.69 56.69;" xml:space="preserve">
<style type="text/css">
	.st0{fill:#1D1D1B;stroke:#1D1D1B;stroke-miterlimit:10;}
	.st1{fill:#F9D0A7;stroke:#1D1D1B;stroke-width:0.25;stroke-miterlimit:10;}
	.st2{fill:#C1272E;stroke:#000000;stroke-width:0.5;stroke-miterlimit:10;}
	.st3{fill:#C1272E;}
	.st4{fill:#FFFFFF;}
</style>
<path class="st0" d="M27.25,32.98c-1.3,0-2.36-1.06-2.36-2.36v-5.2c0-1.3,1.06-2.36,2.36-2.36"/>
<path class="st1" d="M26.59,32.28c-1.3,0-2.36-1.06-2.36-2.36v-5.2c0-1.3,1.06-2.36,2.36-2.36"/>
<path class="st2" d="M40.16,2.64c-0.14-0.06-0.75,1.96-2.54,3.99c-0.91,1.04-2,2.28-3.81,2.9c-2.71,0.93-6.08,0.15-7.8-1.81
	c-0.89-1.01-1.26-2.25-1.45-2.18c-0.25,0.1,0.69,2.01,0.18,4.36c-0.11,0.52-0.33,1.47-1.09,2.36c-0.92,1.08-2.08,1.44-2.72,1.63
	c-0.43,0.13-1.49,0.39-3.08,0.18c-1.21-0.16-2.34-0.55-4.9-2c-3.4-1.93-5.92-3.81-6.17-3.99C4.54,6.41,3.5,5.38,3.33,5.54
	C3.1,5.75,4.8,7.56,6.77,10.81c1.66,2.74,2.27,4.46,3.45,7.8c0.65,1.83,0.93,2.94,0.54,4.17c-0.44,1.42-1.55,2.35-2,2.72
	c-0.37,0.31-1.17,0.91-2.72,1.45c-3.06,1.06-5.61,0.67-5.63,0.91c-0.01,0.16,1.2,0.28,3.45,0.91c1.44,0.4,2.06,0.66,2.54,0.91
	c0.82,0.41,1.57,0.8,2.18,1.63c0.11,0.15,0.58,0.82,0.73,1.63c0.27,1.49-0.62,2.85-1.63,4.17C5,40.61,2.3,42.77,2.42,42.92
	c0.08,0.11,1.37-1.04,3.63-2c0.5-0.21,1.73-0.5,4.17-1.09c0.78-0.19,1.48-0.34,2.18,0c0.6,0.3,0.93,0.84,1.09,1.09
	c0.11,0.17,0.42,0.72,0.54,1.81c0.16,1.44-0.18,2.29,0,2.36c0.26,0.09,0.69-1.69,2.36-3.08c0.88-0.74,1.82-1.12,2.18-1.27
	c0.47-0.19,0.8-0.32,1.27-0.36c0.16-0.01,1.28-0.1,2.18,0.54c0.61,0.44,0.88,1.03,1.27,2.18c0.92,2.68,1.38,4.01,1.45,5.81
	c0.08,1.87-0.24,3.02,0,3.08c0.33,0.09,0.82-2.02,2.72-4.54c1.07-1.42,1.86-2,2.54-2.36c0.94-0.5,1.76-0.63,2.36-0.73
	c0.54-0.08,2.63-0.36,5.08,0.54c2.1,0.77,3.44,2.03,4.36,2.9c1.27,1.21,2.1,2.42,2.18,2.36c0.12-0.09-2.26-2.35-2.54-5.44
	c-0.09-1.02,0.13-1.24,0-3.08c-0.07-1.01-0.17-1.53,0.18-2c0.33-0.43,0.86-0.54,1.81-0.73c0.6-0.11,1.25-0.24,2.18-0.18
	c2.84,0.18,6.37,0.4,6.44,0.27c0.06-0.1-2.11-0.18-5.17-1.36c-1.94-0.74-2.88-0.75-3.81-1.81c-0.24-0.27-1.18-1.43-1.09-3.08
	c0.07-1.15,0.61-1.98,0.91-2.36c0.84-1.08,1.96-1.43,3.08-1.81c1.13-0.39,10.73-2.68,10.62-3.36c-0.04-0.25-3.81,0-6.17-0.18
	c-1.99-0.15-2.98-0.27-4.72-0.54c-1.65-0.26-2.14-0.29-2.99-0.82c-0.4-0.25-1.12-0.69-1.27-1.45c-0.13-0.7,0.29-1.31,0.91-2.18
	c0.98-1.38,1.94-1.98,1.81-2.18c-0.09-0.14-0.57,0.1-1.63,0.36c-0.68,0.17-1.64,0.39-2.72,0.36c-0.91-0.03-1.66-0.05-2.18-0.54
	c-0.66-0.63-0.6-1.69-0.54-2.36c0.34-4.14,1.27-7.08,1.27-7.08C39.49,5.04,40.32,2.7,40.16,2.64z"/>
<g>
	<path class="st3" d="M12.5,19.6c-0.44-1.54-1.18-3.51-2.44-5.59c-0.81-1.33-1.66-2.43-2.44-3.31"/>
	<path class="st4" d="M12.5,19.6c-1.27-3.18-2.88-6.13-4.88-8.9C10.14,13.02,11.9,16.23,12.5,19.6L12.5,19.6z"/>
</g>
<g>
	<path class="st3" d="M24.35,13.86"/>
</g>
<g>
	<path class="st3" d="M7.81,27.97c0.44-0.06,1.14-0.21,1.89-0.65c1.03-0.6,1.58-1.41,1.83-1.83"/>
	<path class="st4" d="M7.81,27.97c1.48-0.56,2.62-1.33,3.72-2.48C11.07,27.02,9.4,28.13,7.81,27.97L7.81,27.97z"/>
</g>
</svg>
